inDegrees=yes
name=ik_example_mov
DataType=double
version=3
OpenSimVersion=4.5
endheader
time	pelvis_tilt	pelvis_list	pelvis_rotation	pelvis_tx	pelvis_ty	pelvis_tz	hip_flexion_r	hip_adduction_r	hip_rotation_r	knee_angle_r	knee_angle_r_beta	ankle_angle_r	subtalar_angle_r	mtp_angle_r	hip_flexion_l	hip_adduction_l	hip_rotation_l	knee_angle_l	knee_angle_l_beta	ankle_angle_l	subtalar_angle_l	mtp_angle_l	lumbar_extension	lumbar_bending	lumbar_rotation	arm_flex_r	arm_add_r	arm_rot_r	elbow_flex_r	pro_sup_r	wrist_flex_r	wrist_dev_r	arm_flex_l	arm_add_l	arm_rot_l	elbow_flex_l	pro_sup_l	wrist_flex_l	wrist_dev_l
5.355111360549927	-7.827481034603117e-14	0	0	0	0.93	0	16.57784070310028	-4.66030181037481	4.168388945247412	23.94255068016646	0.4178763406945126	-4.814213644972154	0	0	0	0	0	0	0	0	0	0	0	0	0	0	0	0	0	0	0	0	0	0	0	0	0	0	0
5.364427804946899	-7.827481034603354e-14	3.339150901330606e-26	9.576718169786164e-27	9.845800398981578e-21	0.93	2.532072643439136e-21	16.40299852977116	-4.64125803071412	4.14618106563966	23.76996175247858	0.4148640956538727	-4.815742511308017	3.477749153507689e-14	6.375154904651977e-13	-5.745461665961223e-16	6.711861371807367e-17	-5.554600163543053e-11	2.058313476543316e-05	3.592453685667415e-07	1.335770994289364e-12	7.794519170739475e-13	5.768158690793262e-15	-2.281001689485613e-11	-1.045873438513622e-11	6.817237119700309e-11	6.69323799909181e-13	-1.195764431184563e-14	-1.057191246939548e-13	2.01678528015113e-05	2.057952710472608e-05	-1.748950639368826e-15	1.986407120804987e-16	-2.25886648957232e-13	1.999049015282941e-13	-7.108546426577417e-13	2.057789886448522e-05	2.058182599489123e-05	5.229906121867347e-16	7.701430592164426e-16
5.371382474899292	-7.827481034675114e-14	-6.693357529132967e-25	-3.296009727702425e-24	-9.376887138613683e-18	0.93	2.984593151929111e-18	16.28540055795633	-4.621922786607855	4.13943469667443	23.65226582133214	0.4128099141391666	-4.816799342304635	1.009135568912443e-14	-8.050086795022569e-16	-6.626041285423484e-15	-1.6916543263767e-13	-9.258749265107356e-15	9.238126455641171e-18	2.304212582124847e-18	2.953050007556466e-14	5.031223346929973e-15	5.013867490076188e-16	-1.169391595220897e-15	-1.494018198669859e-15	-2.928546651807214e-15	6.191129377315685e-16	1.745071618232045e-15	-5.017791812944033e-16	6.996736050219033e-18	6.99678980661166e-18	-1.350061068464607e-17	1.8324527337198e-17	-4.143716864476239e-16	-1.588975400699279e-16	-3.34948590739056e-16	6.99673401551165e-18	6.99679055417465e-18	1.77374360912974e-17	-2.472324845945122e-18
5.383680820465088	-7.827481034603108e-14	0	0	0	0.93	0	16.1848134641206	-4.605800894640034	4.116124042016879	23.56544815086326	0.4112946599405734	-4.817453251780164	0	0	0	0	0	0	0	0	0	0	0	0	0	0	0	0	0	0	0	0	0	0	0	0	0	0	0
5.396658897399902	-7.827481034603364e-14	1.989809795479793e-17	-2.735874718664117e-29	-4.294793734557204e-23	0.93	-7.435484485860155e-23	16.09740750760427	-4.591393374694444	4.104045770519249	23.46603988641067	0.4095596584221823	-4.818515416115974	1.854065168903604e-12	-2.158229803878284e-12	2.935255898269866e-38	1.79390639912219e-21	0	2.213198875238561e-05	3.862760737774555e-07	7.266381155235192e-12	-2.529851565566771e-12	-4.912956426274578e-12	2.462568837996588e-21	0	1.069175017772502e-21	3.81421173460969e-12	1.040976794030518e-17	4.473233158119538e-12	2.151261001849397e-05	2.213198908332894e-05	-6.803964328554422e-17	-5.405829991027032e-17	1.399862858076503e-12	-2.351296617257924e-13	2.169032327963425e-12	2.213198923785693e-05	2.213198929216953e-05	-8.486239257493419e-16	1.877091946235224e-16
5.403165340423584	-7.827481034603207e-14	1.77276495665591e-20	6.460713529789274e-28	-7.430837297204817e-22	0.93	-3.929532392524537e-21	16.02398633219076	-4.572123619097422	4.085774638283141	23.40130465924099	0.408429815566045	-4.818949638688013	-3.471353769661452e-21	9.515167271582919e-25	-4.021324980311383e-29	-3.532164601651444e-24	0	3.885641485409603e-17	6.781714455192286e-19	1.490546203382305e-15	4.737386278547589e-22	1.871032986768224e-24	-9.019182623783587e-23	0	-5.493214722839602e-22	9.557753259389988e-26	5.792621754100924e-19	-1.478878862176702e-17	3.885488691079259e-17	3.885493926276257e-17	3.434966218805814e-20	-4.959921650165072e-19	-1.297587704413745e-15	2.511679443541139e-19	-1.173758580174954e-16	3.885488768021975e-17	3.885494000377745e-17	-1.98383294174411e-19	-1.29592976269948e-18
